# xmcd
#
# Track frame offsets:
#	150
#	16307
#	31460
#	48102
#	61585
#	73960
#
# Disc length: 1184 seconds
#
# Revision: 1
# Processed by: cddbd v1.4PL0 Copyright (c) Steve Scherf et al.
# Submitted via: audiograbber 1.80
#
DISCID=47049e06
DTITLE=Peter Van Mourik - M'n Lust En M'n Leven
DYEAR=1900
DGENRE=
TTITLE0=M'n Lust En M'n Leven
TTITLE1=Rosie
TTITLE2=Papa Woon Jij Daar
TTITLE3=Eenmaal Komt De Dag
TTITLE4=Alles Heeft 'n Begin
TTITLE5=Ik Moet Nog Wat Jaren Mee
EXTD=
EXTT0=
EXTT1=
EXTT2=
EXTT3=
EXTT4=
EXTT5=
PLAYORDER=
